<?xml version="1.0" encoding="UTF-8"?>
<svg width="24px" height="24px" viewBox="0 0 24 24" version="1.1" xmlns="http://www.w3.org/2000/svg" xmlns:xlink="http://www.w3.org/1999/xlink">
    <!-- Generator: Sketch 52.5 (67469) - http://www.bohemiancoding.com/sketch -->
    <title>Icon/Social/Twitter/Silver</title>
    <desc>Created with Sketch.</desc>
    <defs>
        <polygon id="path-1" points="0.000273913043 0 20.4923478 0 20.4923478 16.4347826 0.000273913043 16.4347826"></polygon>
    </defs>
    <g id="Icon/Social/Twitter/Silver" stroke="none" stroke-width="1" fill="none" fill-rule="evenodd">
        <g id="Page-1" transform="translate(1.000000, 4.000000)">
            <mask id="mask-2" fill="white">
                <use xlink:href="#path-1"></use>
            </mask>
            <g id="Clip-2"></g>
            <path d="M20.4926217,2.13104348 C19.7494043,2.46247826 19.1230565,2.47343478 18.4583609,2.14565217 C19.3157087,1.63252174 19.3549696,1.27278261 19.6644913,0.303130435 C18.8628391,0.778826087 17.9744478,1.12395652 17.0294478,1.31113043 C16.2734478,0.504913043 15.1942304,0 14.0017957,0 C11.7100565,0 9.85292609,1.85895652 9.85292609,4.14886957 C9.85292609,4.47482609 9.88944783,4.79165217 9.95975217,5.09478261 C6.51118696,4.92221739 3.45431739,3.27052174 1.40818696,0.759652174 C1.05118696,1.37230435 0.845752174,2.0853913 0.845752174,2.84595652 C0.845752174,4.28582609 1.57892609,5.55495652 2.69192609,6.29908696 C2.0117087,6.27717391 1.37257826,6.09091304 0.812882609,5.78047826 C0.811969565,5.79782609 0.811969565,5.81426087 0.811969565,5.83252174 C0.811969565,7.84304348 2.2427087,9.5193913 4.14092609,9.90104348 C3.53283913,10.0663043 2.89188261,10.0918696 2.26644783,9.97226087 C2.7951,11.6203043 4.32718696,12.8200435 6.14231739,12.8538261 C4.36736087,14.2453043 2.16601304,14.825087 0.000273913043,14.5712609 C1.83640435,15.7481739 4.01675217,16.4347826 6.35962174,16.4347826 C13.9917522,16.4347826 18.1634478,10.1128696 18.1634478,4.63004348 C18.1634478,4.45017391 18.1607087,4.27213043 18.1524913,4.09317391 C18.9623609,3.50882609 19.9365783,2.96373913 20.4926217,2.13104348" id="Fill-1" fill="#FFFFFF" mask="url(#mask-2)"></path>
        </g>
    </g>
</svg>