<?xml version="1.0" encoding="UTF-8"?>
<svg width="50px" height="25px" viewBox="0 0 50 25" version="1.1" xmlns="http://www.w3.org/2000/svg" xmlns:xlink="http://www.w3.org/1999/xlink">
    <!-- Generator: Sketch 52.5 (67469) - http://www.bohemiancoding.com/sketch -->
    <title>Icon/xto</title>
    <desc>Created with Sketch.</desc>
    <g id="Icon/xto" stroke="none" stroke-width="1" fill="none" fill-rule="evenodd">
        <g id="XTO-Energy" transform="translate(4.000000, 1.000000)" fill="#FFFFFF">
            <g transform="translate(-0.000000, 0.000000)" id="Shape">
                <path d="M13.7844799,11.8454595 L22.3911943,0.369840396 L17.7047881,0.369840396 L11.3963676,8.69124931 L9.28299395,5.91744634 L4.6916896,5.91744634 L9.09279031,11.729224 L0.486075949,23.1097413 L5.0773803,23.1097413 L11.4175014,14.7936159 L13.5308751,17.5674188 L18.1221794,17.5674188 L13.7844799,11.8454595 Z M11.3963676,13.736929 L2.78965327,23.2471106 L9.95927353,11.8665933 L6.99526692,6.05481563 L11.3963676,9.88002201 L20.003082,0.41210787 L12.8334618,11.7926252 L15.7023665,17.5304348 L11.3963676,13.736929 Z"></path>
                <path d="M41.612328,11.8454595 C41.5977609,8.53876398 38.9091994,5.86790985 35.6024797,5.87519341 C32.2957601,5.88247697 29.6189905,8.56514906 29.6189905,11.8718767 C29.6189905,15.1786044 32.2957601,17.8612765 35.6024797,17.86856 C38.9091994,17.8758436 41.5977609,15.2049895 41.612328,11.8982939 L41.612328,11.8454595 Z M35.589213,14.5241607 C34.1098072,14.5241607 32.9105118,13.3248653 32.9105118,11.8454595 C32.9105118,10.3660538 34.1098072,9.16675839 35.589213,9.16675839 C37.0686188,9.16675839 38.2679141,10.3660538 38.2679141,11.8454595 L38.2679141,11.8454595 C38.2370904,13.311908 37.0556614,14.4933369 35.589213,14.5241607 Z"></path>
                <path d="M11.6816731,23.0357733 C11.453607,23.0588541 11.2233469,23.0262188 11.0106769,22.9406714 C10.874272,22.8221381 10.8034444,22.6450692 10.8204733,22.4651624 L10.8204733,21.1337369 L11.6816731,21.1337369 C12.1571822,21.1337369 12.2575674,21.3239406 12.2575674,21.609246 L12.4477711,21.609246 L12.4477711,20.3570721 L12.2575674,20.3570721 C12.1624656,20.7374794 12.1624656,20.8325812 11.6816731,20.8325812 L10.8204733,20.8325812 L10.8204733,19.4007705 C10.8204733,19.2105669 10.8204733,19.2105669 11.0106769,19.2105669 L11.5865713,19.2105669 C12.2575674,19.2105669 12.4477711,19.4007705 12.5428729,19.9766648 L12.7330765,19.9766648 L12.7330765,19.0203632 L9.67396808,19.0203632 L9.67396808,19.2105669 C10.2498624,19.2105669 10.2498624,19.3056687 10.2498624,19.5909741 L10.2498624,22.6500826 C10.2498624,23.0304898 10.2498624,23.0304898 9.67396808,23.0304898 L9.67396808,23.2471106 L12.8440286,23.2471106 L12.9391304,22.1904238 L12.7489268,22.1904238 C12.7330765,22.935388 12.4477711,23.0357733 11.6816731,23.0357733 Z"></path>
                <path d="M17.7998899,19.3056687 C18.1838195,19.3056687 18.3757843,19.4007705 18.3757843,19.5909741 L18.3757843,22.4598789 L18.3757843,22.4598789 C17.6096863,21.3133737 16.8435883,20.2619703 15.987672,19.1154651 L14.8411668,19.1154651 L14.8411668,19.3056687 C15.4170611,19.3056687 15.4170611,19.4007705 15.4170611,19.6860759 L15.4170611,22.8561365 C15.4170611,23.1414419 15.2268575,23.1414419 14.941552,23.1414419 L14.941552,23.3316456 L16.3786461,23.3316456 L16.3786461,23.1414419 C15.9947166,23.1414419 15.8027518,23.0463401 15.8027518,22.8561365 L15.8027518,19.6860759 L15.8027518,19.6860759 C16.6639516,20.927683 17.5251513,22.0741882 18.3863511,23.3210787 L18.7667584,23.3210787 L18.7667584,19.5909741 C18.7667584,19.3056687 18.956962,19.3056687 19.2422675,19.3056687 L19.2422675,19.1154651 L17.8104568,19.1154651 L17.7998899,19.3056687 Z"></path>
                <path d="M22.9670886,23.0357733 C22.7390225,23.0588541 22.5087624,23.0262188 22.2960925,22.9406714 C22.1596875,22.8221381 22.0888599,22.6450692 22.1058888,22.4651624 L22.1058888,21.1337369 L22.9670886,21.1337369 C23.4425977,21.1337369 23.5429829,21.3239406 23.5429829,21.609246 L23.7331866,21.609246 L23.7331866,20.3570721 L23.5429829,20.3570721 C23.4478811,20.7374794 23.4478811,20.8325812 22.9670886,20.8325812 L22.1058888,20.8325812 L22.1058888,19.4007705 C22.1058888,19.2105669 22.1058888,19.2105669 22.2960925,19.2105669 L22.8719868,19.2105669 C23.5429829,19.2105669 23.7331866,19.4007705 23.8282884,19.9766648 L24.018492,19.9766648 L24.018492,19.0203632 L20.9593836,19.0203632 L20.9593836,19.2105669 C21.5352779,19.2105669 21.5352779,19.3056687 21.5352779,19.5909741 L21.5352779,22.6500826 C21.5352779,23.0304898 21.5352779,23.0304898 20.9593836,23.0304898 L20.9593836,23.2471106 L24.1294441,23.2471106 L24.224546,22.1904238 L24.0343423,22.1904238 C24.018492,22.935388 23.7331866,23.0357733 22.9670886,23.0357733 Z"></path>
                <path d="M29.1804073,22.2696753 C29.0853054,21.693781 28.9902036,21.3133737 28.3192075,21.2129884 L28.3192075,21.2129884 C28.8632776,21.1610726 29.2779804,20.7028375 29.2755091,20.1563016 C29.2755091,19.5804073 28.8951018,19.0996147 27.8436984,19.0996147 L26.1212988,19.0996147 L26.1212988,19.2898184 C26.6971932,19.2898184 26.6971932,19.3849202 26.6971932,19.6702256 L26.6971932,22.7187672 C26.6971932,23.0991745 26.6971932,23.0991745 26.1212988,23.0991745 L26.1212988,23.2893781 L27.8436984,23.2893781 L27.8436984,23.0991745 C27.3681893,23.0991745 27.2678041,23.0040726 27.2678041,22.7187672 L27.2678041,21.3133737 L27.6482113,21.3133737 C28.0286186,21.3133737 28.3192075,21.4084755 28.4143093,21.7888828 C28.4406082,22.1139199 28.504434,22.4348217 28.6045129,22.7451844 C28.6996147,23.1255916 28.8898184,23.2206935 29.2755091,23.2206935 L29.7510182,23.2206935 L29.7510182,23.0357733 C29.3706109,23.0357733 29.2755091,22.7187672 29.1804073,22.2696753 Z M27.8436984,21.1337369 L27.3681893,21.1337369 L27.3681893,19.6860759 C27.3681893,19.4007705 27.3681893,19.4007705 27.8436984,19.4007705 C28.3192075,19.4007705 28.8,19.5909741 28.8,20.2619703 C28.8,20.7463517 28.4073313,21.1390204 27.9229499,21.1390204 L27.8436984,21.1390204 L27.8436984,21.1337369 Z"></path>
                <path d="M33.8668134,21.5986791 C34.4427078,21.5986791 34.5378096,21.693781 34.5378096,21.9790864 L34.5378096,22.7451844 C34.5378096,22.935388 34.4427078,23.0304898 34.3476059,23.0304898 C34.1683777,23.1156321 33.968798,23.1485902 33.7717116,23.1255916 C32.4350028,23.1255916 32.1444139,21.8839846 32.1444139,21.1178866 C32.1444139,20.161585 32.5248211,19.2052834 33.6766098,19.2052834 C34.2279285,19.1300873 34.7360828,19.5153391 34.8125482,20.0664832 L34.8125482,20.161585 L35.0027518,20.161585 L35.0027518,19.2105669 C34.5917829,18.9946659 34.1293466,18.8959641 33.6660429,18.9252614 C32.9690973,18.8532469 32.2836439,19.1421735 31.8485416,19.6913594 C31.5215597,20.1337388 31.3539607,20.6737799 31.3730325,21.2235553 C31.3204313,21.8903449 31.6087136,22.5384831 32.1391304,22.9459549 C32.6029209,23.2168052 33.1347106,23.3488357 33.6713264,23.3263621 C34.1327291,23.3334755 34.5897444,23.2359308 35.0080352,23.0410567 L35.0080352,21.9843698 C35.0080352,21.6990644 35.0080352,21.6990644 35.3884425,21.6039626 L35.3884425,21.4137589 L33.7611447,21.4137589 L33.7611447,21.6039626 L33.8668134,21.5986791 Z"></path>
                <path d="M39.6257567,19.3056687 L39.9110622,19.3056687 C40.006164,19.3056687 40.006164,19.4007705 40.006164,19.4958723 C39.8159604,19.8762796 39.4302697,20.6423775 39.1449642,21.3133737 L39.1449642,21.3133737 C38.764557,20.6423775 38.4739681,20.0717666 38.1886626,19.4958723 C38.0935608,19.4007705 38.1886626,19.3056687 38.2837644,19.3056687 L38.6641717,19.3056687 L38.6641717,19.1154651 L37.1319758,19.1154651 L37.1319758,19.3056687 C37.3595445,19.2986114 37.5756085,19.4056523 37.7078701,19.5909741 C38.083396,20.1985139 38.4034554,20.8386327 38.6641717,21.5035773 C38.7592735,21.5986791 38.7592735,21.693781 38.7592735,21.8839846 L38.7592735,22.7451844 C38.7592735,23.0304898 38.7592735,23.1255916 38.0882774,23.1255916 L38.0882774,23.3157953 L40.0008806,23.3157953 L40.0008806,23.1255916 C39.4249862,23.1255916 39.3298844,23.0304898 39.3298844,22.7451844 L39.3298844,21.7888828 C39.3161115,21.6548597 39.349764,21.5202497 39.4249862,21.4084755 C39.7102917,20.8325812 40.1910842,19.9766648 40.3812878,19.6860759 C40.4946507,19.4234291 40.7686992,19.268063 41.052284,19.3056687 L41.052284,19.1154651 L39.7155751,19.1154651 L39.7155751,19.3056687 L39.6257567,19.3056687 Z"></path>
                <polygon points="29.4657127 6.01254816 19.3320859 6.01254816 16.9439736 9.45734728 21.6250963 9.45734728 21.6250963 17.5832691 25.3552009 17.5832691 25.3552009 9.45734728 29.4657127 9.45734728"></polygon>
            </g>
        </g>
    </g>
</svg>